<svg xmlns="http://www.w3.org/2000/svg" fill="none" class="h-full min-w-[1200px]" preserveAspectRatio="xMinYMin slice" viewBox="0 0 1376 718"><path fill="url(#a)" d="M0 0h1376v670c0 26.51-21.49 48-48 48H48c-26.51 0-48-21.49-48-48V0Z" opacity=".5"/><mask id="b" width="1376" height="718" x="0" y="0" maskUnits="userSpaceOnUse" style="mask-type:luminance"><path fill="#fff" d="M0 0h1376v670c0 26.51-21.49 48-48 48H48c-26.51 0-48-21.49-48-48V0Z" opacity=".5"/></mask><g mask="url(#b)"><circle cx="245" cy="192" r="2" fill="#F1F5F9" fill-opacity=".32"/><circle cx="250" cy="249" r="2" fill="#F1F5F9" fill-opacity=".32"/><circle cx="148" cy="333" r="3" fill="#F1F5F9" fill-opacity=".12"/><circle cx="337" cy="362" r="2" fill="#F1F5F9" fill-opacity=".48"/><circle cx="366" cy="116" r="2" fill="#F1F5F9" fill-opacity=".48"/><circle cx="899" cy="188" r="2" fill="#F1F5F9" fill-opacity=".08"/><circle cx="491" cy="401" r="2" fill="#F1F5F9" fill-opacity=".12"/><circle cx="491" cy="401" r="2" fill="#F1F5F9" fill-opacity=".32"/><circle cx="818" cy="154" r="2" fill="#F1F5F9" fill-opacity=".24"/><circle cx="988" cy="393" r="2" fill="#F1F5F9" fill-opacity=".24"/><circle cx="995" cy="475" r="1" fill="#F1F5F9" fill-opacity=".32"/><circle cx="869" cy="414" r="2" fill="#F1F5F9" fill-opacity=".48"/><circle cx="1088" cy="209" r="2" fill="#F1F5F9" fill-opacity=".48"/><circle cx="975" cy="127" r="1" fill="#F1F5F9" fill-opacity=".32"/><circle cx="1259" cy="339" r="2" fill="#F1F5F9" fill-opacity=".12"/><circle cx="1107" cy="525" r="1" fill="#F1F5F9" fill-opacity=".4"/><circle cx="866" cy="484" r="1" fill="#F1F5F9" fill-opacity=".32"/><circle cx="718" cy="428" r="1" fill="#F1F5F9" fill-opacity=".64"/><circle cx="445" cy="479" r="1" fill="#F1F5F9" fill-opacity=".72"/><circle cx="384" cy="453" r="2" fill="#F1F5F9" fill-opacity=".16"/><circle cx="183" cy="498" r="1" fill="#F1F5F9" fill-opacity=".32"/><circle cx="299" cy="409" r="1" fill="#F1F5F9" fill-opacity=".24"/><g filter="url(#c)"><path fill="url(#d)" d="M1433.72 442.763a12.272 12.272 0 0 0-13.04-1.568 12.323 12.323 0 0 0-7.02 11.129v98.57H983.296c-6.791 0-12.296 5.516-12.296 12.321v98.57c0 6.805 5.505 12.321 12.296 12.321h430.364v98.57c0 4.755 2.73 9.086 7.02 11.129a12.272 12.272 0 0 0 13.04-1.568l196.74-160.176a12.338 12.338 0 0 0 0-19.122l-196.74-160.176Z"/></g><g filter="url(#e)"><path fill="url(#f)" fill-rule="evenodd" d="m371-65 461 369-284 58L371-65Z" clip-rule="evenodd"/></g></g><defs><linearGradient id="f" x1="264.422" x2="386.568" y1="61.986" y2="432.799" gradientUnits="userSpaceOnUse"><stop stop-color="var(--brand-gradient-hero-triangle-start)"/><stop offset="1" stop-color="var(--brand-gradient-hero-triangle-stop)"/></linearGradient><linearGradient id="d" x1="974.464" x2="986.754" y1="494.676" y2="790.36" gradientUnits="userSpaceOnUse"><stop stop-color="var(--brand-gradient-hero-arrow-start)"/><stop offset="1" stop-color="var(--brand-gradient-hero-arrow-stop)"/></linearGradient><filter id="c" width="935.828" height="616.828" x="835.086" y="304.086" color-interpolation-filters="sRGB" filterUnits="userSpaceOnUse"><feFlood flood-opacity="0" result="BackgroundImageFix"/><feBlend in="SourceGraphic" in2="BackgroundImageFix" result="shape"/><feGaussianBlur result="effect1_foregroundBlur_401_76334" stdDeviation="67.957"/></filter><filter id="e" width="732.828" height="698.828" x="235.086" y="-200.914" color-interpolation-filters="sRGB" filterUnits="userSpaceOnUse"><feFlood flood-opacity="0" result="BackgroundImageFix"/><feBlend in="SourceGraphic" in2="BackgroundImageFix" result="shape"/><feGaussianBlur result="effect1_foregroundBlur_401_76334" stdDeviation="67.957"/></filter><radialGradient id="a" cx="0" cy="0" r="1" gradientTransform="matrix(0 -877.183 1681.06 0 688 918)" gradientUnits="userSpaceOnUse"><stop stop-color="var(--brand-gradient-radial-light)"/><stop offset=".223" stop-color="var(--brand-gradient-radial-dark)"/><stop offset="1" stop-color="var(--brand-gradient-radial-stop-color)" stop-opacity=".01"/></radialGradient></defs></svg>